<?xml version="1.0" encoding="UTF-8" standalone="no"?>
<!DOCTYPE svg PUBLIC "-//W3C//DTD SVG 1.1//EN"
 "http://www.w3.org/Graphics/SVG/1.1/DTD/svg11.dtd">
<!-- Generated by graphviz version 2.42.3 (20191010.1750)
 -->
<!-- Title: snakemake_dag Pages: 1 -->
<svg width="2054pt" height="1380pt"
 viewBox="0.00 0.00 2054.00 1380.00" xmlns="http://www.w3.org/2000/svg" xmlns:xlink="http://www.w3.org/1999/xlink">
<g id="graph0" class="graph" transform="scale(1 1) rotate(0) translate(4 1376)">
<title>snakemake_dag</title>
<polygon fill="white" stroke="transparent" points="-4,4 -4,-1376 2050,-1376 2050,4 -4,4"/>
<!-- 0 -->
<g id="node1" class="node">
<title>0</title>
<text text-anchor="start" x="995.5" y="-197.6" font-family="sans" font-weight="bold" font-size="18.00">all</text>
<text text-anchor="start" x="828.5" y="-173.8" font-family="sans" font-size="10.00"> </text>
<text text-anchor="start" x="831.5" y="-173.8" font-family="sans" font-weight="bold" font-size="14.00">↪ input</text>
<text text-anchor="start" x="884.5" y="-173.8" font-family="sans" font-size="10.00"> </text>
<text text-anchor="start" x="828.5" y="-154" font-family="monospace" font-size="10.00">001&#45;rad&#45;seq&#45;data&#45;summaries&#45;and&#45;pca.html</text>
<text text-anchor="start" x="828.5" y="-136" font-family="monospace" font-size="10.00">002&#45;select&#45;snps&#45;for&#45;assays&#45;from&#45;rad.html</text>
<text text-anchor="start" x="828.5" y="-118" font-family="monospace" font-size="10.00">003&#45;process&#45;5&#45;plates&#45;of&#45;birds&#45;at&#45;192&#45;fluidigm&#45;snps.html</text>
<text text-anchor="start" x="828.5" y="-100" font-family="monospace" font-size="10.00">004&#45;combine&#45;RAD&#45;and&#45;fludigm&#45;breeders&#45;and&#45;run&#45;STRUCTURE.html</text>
<text text-anchor="start" x="828.5" y="-82" font-family="monospace" font-size="10.00">005&#45;choosing&#45;96&#45;SNPs&#45;from&#45;amongst&#45;the&#45;179.html</text>
<text text-anchor="start" x="828.5" y="-64" font-family="monospace" font-size="10.00">006&#45;make&#45;the&#45;genoscape.html</text>
<text text-anchor="start" x="828.5" y="-46" font-family="monospace" font-size="10.00">007&#45;process&#45;fluidigm&#45;plates&#45;for&#45;wintering&#45;birds.html</text>
<text text-anchor="start" x="828.5" y="-28" font-family="monospace" font-size="10.00">008&#45;rubias&#45;self&#45;assign&#45;and&#45;wintering&#45;birds.html</text>
<text text-anchor="start" x="1177.5" y="-10" font-family="sans" font-size="10.00"> &#160;</text>
<polygon fill="#9ed957" stroke="#9ed957" points="822.5,-188 822.5,-188 1190.5,-188 1190.5,-188 822.5,-188"/>
<polygon fill="#9ed957" stroke="#9ed957" points="822.5,-22 822.5,-22 1190.5,-22 1190.5,-22 822.5,-22"/>
<polygon fill="none" stroke="#9ed957" stroke-width="2" points="822,-1 822,-217 1189,-217 1189,-1 822,-1"/>
</g>
<!-- 1 -->
<g id="node2" class="node">
<title>1</title>
<text text-anchor="start" x="191.5" y="-668.6" font-family="sans" font-weight="bold" font-size="18.00">rad_seq_data_summaries_and_pca_001</text>
<text text-anchor="start" x="191.5" y="-644.8" font-family="sans" font-size="10.00"> </text>
<text text-anchor="start" x="194.5" y="-644.8" font-family="sans" font-weight="bold" font-size="14.00">↪ input</text>
<text text-anchor="start" x="247.5" y="-644.8" font-family="sans" font-size="10.00"> </text>
<text text-anchor="start" x="191.5" y="-625" font-family="monospace" font-size="10.00">001&#45;rad&#45;seq&#45;data&#45;summaries&#45;and&#45;pca.Rmd</text>
<text text-anchor="start" x="191.5" y="-607" font-family="monospace" font-size="10.00">data/appendices/app1&#45;SITable1_Breed_IndvAssigwgenos.csv</text>
<text text-anchor="start" x="191.5" y="-589" font-family="monospace" font-size="10.00">data/rad_wifl_clean_175_105000.rds</text>
<text text-anchor="start" x="468.5" y="-568.8" font-family="sans" font-size="10.00"> </text>
<text text-anchor="start" x="471.5" y="-568.8" font-family="sans" font-weight="bold" font-size="14.00">output →</text>
<text text-anchor="start" x="533.5" y="-568.8" font-family="sans" font-size="10.00"> </text>
<text text-anchor="start" x="191.5" y="-549" font-family="monospace" font-size="10.00">001&#45;rad&#45;seq&#45;data&#45;summaries&#45;and&#45;pca.html</text>
<text text-anchor="start" x="191.5" y="-531" font-family="monospace" font-size="10.00">outputs/001/rad&#45;fst&#45;sample&#45;sizes&#45;table.csv</text>
<text text-anchor="start" x="191.5" y="-513" font-family="monospace" font-size="10.00">outputs/001/rad&#45;fst&#45;table.csv</text>
<polygon fill="#6ed957" stroke="#6ed957" points="185.5,-659 185.5,-659 543.5,-659 543.5,-659 185.5,-659"/>
<polygon fill="#6ed957" stroke="#6ed957" points="185.5,-583 185.5,-583 543.5,-583 543.5,-583 185.5,-583"/>
<polygon fill="none" stroke="#6ed957" stroke-width="2" points="185,-504 185,-688 542,-688 542,-504 185,-504"/>
</g>
<!-- 1&#45;&gt;0 -->
<g id="edge5" class="edge">
<title>1&#45;&gt;0</title>
<path fill="none" stroke="grey" stroke-width="2" d="M485.39,-502.92C590.24,-423.71 741.95,-309.1 854.48,-224.09"/>
<polygon fill="grey" stroke="grey" stroke-width="2" points="856.64,-226.84 862.51,-218.02 852.42,-221.26 856.64,-226.84"/>
</g>
<!-- 2 -->
<g id="node3" class="node">
<title>2</title>
<text text-anchor="start" x="993" y="-1351.6" font-family="sans" font-weight="bold" font-size="18.00">input_data_files_etc</text>
<text text-anchor="start" x="866.5" y="-1330" font-family="sans" font-size="10.00"> &#160;</text>
<text text-anchor="start" x="1225.5" y="-1309.8" font-family="sans" font-size="10.00"> </text>
<text text-anchor="start" x="1228.5" y="-1309.8" font-family="sans" font-weight="bold" font-size="14.00">output →</text>
<text text-anchor="start" x="1290.5" y="-1309.8" font-family="sans" font-size="10.00"> </text>
<text text-anchor="start" x="866.5" y="-1290" font-family="monospace" font-size="10.00">data/WIFL_fluidigm_assay_info.csv</text>
<text text-anchor="start" x="866.5" y="-1272" font-family="monospace" font-size="10.00">data/appendices/app1&#45;SITable1_Breed_IndvAssigwgenos.csv</text>
<text text-anchor="start" x="866.5" y="-1254" font-family="monospace" font-size="10.00">data/fluidigm_additional_chips/WIFL.Plate16_PopID_CBdetailedResults.csv</text>
<text text-anchor="start" x="866.5" y="-1236" font-family="monospace" font-size="10.00">data/fluidigm_panel_1_and_2_chips</text>
<text text-anchor="start" x="866.5" y="-1218" font-family="monospace" font-size="10.00">data/fluidigm_panel_3_chips</text>
<text text-anchor="start" x="866.5" y="-1200" font-family="monospace" font-size="10.00">data/rad_wifl_clean_175_105000.rds</text>
<text text-anchor="start" x="866.5" y="-1182" font-family="monospace" font-size="10.00">data/rad_wifl_less_filtered_219_349014.rds</text>
<text text-anchor="start" x="866.5" y="-1164" font-family="monospace" font-size="10.00">data/wifl&#45;snp&#45;short&#45;names.tsv</text>
<text text-anchor="start" x="866.5" y="-1146" font-family="monospace" font-size="10.00">data/wifl_snp_comparison_counts.txt</text>
<text text-anchor="start" x="866.5" y="-1128" font-family="monospace" font-size="10.00">inputs/004/slg&#45;pipe&#45;locus&#45;order.rds</text>
<polygon fill="#57d99e" stroke="#57d99e" points="860.5,-1342 860.5,-1342 1300.5,-1342 1300.5,-1342 860.5,-1342"/>
<polygon fill="#57d99e" stroke="#57d99e" points="860.5,-1324 860.5,-1324 1300.5,-1324 1300.5,-1324 860.5,-1324"/>
<polygon fill="none" stroke="#57d99e" stroke-width="2" points="860,-1119 860,-1371 1299,-1371 1299,-1119 860,-1119"/>
</g>
<!-- 2&#45;&gt;1 -->
<g id="edge9" class="edge">
<title>2&#45;&gt;1</title>
<path fill="none" stroke="grey" stroke-width="2" d="M928.2,-1117.97C919,-1106.47 910.61,-1094.44 903.5,-1082 829.04,-951.76 942.97,-853.51 832.5,-752 786.14,-709.4 610.73,-737.34 551.5,-716 534.94,-710.03 518.32,-702.42 502.19,-693.94"/>
<polygon fill="grey" stroke="grey" stroke-width="2" points="503.74,-690.8 493.28,-689.14 500.42,-696.96 503.74,-690.8"/>
</g>
<!-- 3 -->
<g id="node4" class="node">
<title>3</title>
<text text-anchor="start" x="484.5" y="-1061.6" font-family="sans" font-weight="bold" font-size="18.00">select_assay_snps_from_rad_seq_002</text>
<text text-anchor="start" x="484.5" y="-1037.8" font-family="sans" font-size="10.00"> </text>
<text text-anchor="start" x="487.5" y="-1037.8" font-family="sans" font-weight="bold" font-size="14.00">↪ input</text>
<text text-anchor="start" x="540.5" y="-1037.8" font-family="sans" font-size="10.00"> </text>
<text text-anchor="start" x="484.5" y="-1018" font-family="monospace" font-size="10.00">002&#45;select&#45;snps&#45;for&#45;assays&#45;from&#45;rad.Rmd</text>
<text text-anchor="start" x="484.5" y="-1000" font-family="monospace" font-size="10.00">data/appendices/app1&#45;SITable1_Breed_IndvAssigwgenos.csv</text>
<text text-anchor="start" x="484.5" y="-982" font-family="monospace" font-size="10.00">data/rad_wifl_clean_175_105000.rds</text>
<text text-anchor="start" x="484.5" y="-964" font-family="monospace" font-size="10.00">data/rad_wifl_less_filtered_219_349014.rds</text>
<text text-anchor="start" x="484.5" y="-946" font-family="monospace" font-size="10.00">data/wifl&#45;snp&#45;short&#45;names.tsv</text>
<text text-anchor="start" x="484.5" y="-928" font-family="monospace" font-size="10.00">data/wifl_snp_comparison_counts.txt</text>
<text text-anchor="start" x="484.5" y="-910" font-family="monospace" font-size="10.00">stored_results/002/candidate_snps_tossed.csv</text>
<text text-anchor="start" x="749.5" y="-889.8" font-family="sans" font-size="10.00"> </text>
<text text-anchor="start" x="752.5" y="-889.8" font-family="sans" font-weight="bold" font-size="14.00">output →</text>
<text text-anchor="start" x="814.5" y="-889.8" font-family="sans" font-size="10.00"> </text>
<text text-anchor="start" x="484.5" y="-870" font-family="monospace" font-size="10.00">002&#45;select&#45;snps&#45;for&#45;assays&#45;from&#45;rad.html</text>
<text text-anchor="start" x="484.5" y="-852" font-family="monospace" font-size="10.00">outputs/002/candidate_snps_untossed.csv</text>
<text text-anchor="start" x="484.5" y="-834" font-family="monospace" font-size="10.00">outputs/002/consensus_sequences_of_snps.txt</text>
<text text-anchor="start" x="484.5" y="-816" font-family="monospace" font-size="10.00">outputs/002/regions&#45;for&#45;candidates.txt</text>
<text text-anchor="start" x="484.5" y="-798" font-family="monospace" font-size="10.00">outputs/002/relevant_variation.txt</text>
<text text-anchor="start" x="484.5" y="-780" font-family="monospace" font-size="10.00">outputs/002/top40_lfmm.csv</text>
<text text-anchor="start" x="484.5" y="-762" font-family="monospace" font-size="10.00">outputs/002/wifl&#45;assay&#45;candidates&#45;with&#45;ranks.csv</text>
<polygon fill="#57d96e" stroke="#57d96e" points="478.5,-1052 478.5,-1052 824.5,-1052 824.5,-1052 478.5,-1052"/>
<polygon fill="#57d96e" stroke="#57d96e" points="478.5,-904 478.5,-904 824.5,-904 824.5,-904 478.5,-904"/>
<polygon fill="none" stroke="#57d96e" stroke-width="2" points="478,-753 478,-1081 823,-1081 823,-753 478,-753"/>
</g>
<!-- 2&#45;&gt;3 -->
<g id="edge11" class="edge">
<title>2&#45;&gt;3</title>
<path fill="none" stroke="grey" stroke-width="2" d="M913.64,-1117.96C886.92,-1097.66 859.14,-1076.55 832.08,-1055.98"/>
<polygon fill="grey" stroke="grey" stroke-width="2" points="834.16,-1053.17 824.08,-1049.91 829.93,-1058.74 834.16,-1053.17"/>
</g>
<!-- 5 -->
<g id="node6" class="node">
<title>5</title>
<text text-anchor="start" x="1246.5" y="-980.6" font-family="sans" font-weight="bold" font-size="18.00">process_5_plates_of_birds_at_192_fluidigm_snps_003</text>
<text text-anchor="start" x="1246.5" y="-956.8" font-family="sans" font-size="10.00"> </text>
<text text-anchor="start" x="1249.5" y="-956.8" font-family="sans" font-weight="bold" font-size="14.00">↪ input</text>
<text text-anchor="start" x="1302.5" y="-956.8" font-family="sans" font-size="10.00"> </text>
<text text-anchor="start" x="1246.5" y="-937" font-family="monospace" font-size="10.00">003&#45;process&#45;5&#45;plates&#45;of&#45;birds&#45;at&#45;192&#45;fluidigm&#45;snps.Rmd</text>
<text text-anchor="start" x="1246.5" y="-919" font-family="monospace" font-size="10.00">data/fluidigm_panel_1_and_2_chips</text>
<text text-anchor="start" x="1649.5" y="-898.8" font-family="sans" font-size="10.00"> </text>
<text text-anchor="start" x="1652.5" y="-898.8" font-family="sans" font-weight="bold" font-size="14.00">output →</text>
<text text-anchor="start" x="1714.5" y="-898.8" font-family="sans" font-size="10.00"> </text>
<text text-anchor="start" x="1246.5" y="-879" font-family="monospace" font-size="10.00">003&#45;process&#45;5&#45;plates&#45;of&#45;birds&#45;at&#45;192&#45;fluidigm&#45;snps.html</text>
<text text-anchor="start" x="1246.5" y="-861" font-family="monospace" font-size="10.00">outputs/003/564_birds_at_192_fluidigm_snps.rds</text>
<text text-anchor="start" x="1246.5" y="-843" font-family="monospace" font-size="10.00">outputs/003/final_fluidigm_breeders_179_loci_393_birds_long.rds</text>
<polygon fill="#d95757" stroke="#d95757" points="1240.5,-971 1240.5,-971 1724.5,-971 1724.5,-971 1240.5,-971"/>
<polygon fill="#d95757" stroke="#d95757" points="1240.5,-913 1240.5,-913 1724.5,-913 1724.5,-913 1240.5,-913"/>
<polygon fill="none" stroke="#d95757" stroke-width="2" points="1240,-834 1240,-1000 1723,-1000 1723,-834 1240,-834"/>
</g>
<!-- 2&#45;&gt;5 -->
<g id="edge12" class="edge">
<title>2&#45;&gt;5</title>
<path fill="none" stroke="grey" stroke-width="2" d="M1234.92,-1117.96C1280.37,-1081.1 1329.1,-1041.59 1371.14,-1007.5"/>
<polygon fill="grey" stroke="grey" stroke-width="2" points="1373.34,-1010.21 1378.91,-1001.2 1368.94,-1004.78 1373.34,-1010.21"/>
</g>
<!-- 6 -->
<g id="node7" class="node">
<title>6</title>
<text text-anchor="start" x="568.5" y="-677.6" font-family="sans" font-weight="bold" font-size="18.00">combine_RAD_and_fludigm_breeders_and_run_STRUCTURE_004</text>
<text text-anchor="start" x="568.5" y="-653.8" font-family="sans" font-size="10.00"> </text>
<text text-anchor="start" x="571.5" y="-653.8" font-family="sans" font-weight="bold" font-size="14.00">↪ input</text>
<text text-anchor="start" x="624.5" y="-653.8" font-family="sans" font-size="10.00"> </text>
<text text-anchor="start" x="568.5" y="-634" font-family="monospace" font-size="10.00">004&#45;combine&#45;RAD&#45;and&#45;fludigm&#45;breeders&#45;and&#45;run&#45;STRUCTURE.Rmd</text>
<text text-anchor="start" x="568.5" y="-616" font-family="monospace" font-size="10.00">data/WIFL_fluidigm_assay_info.csv</text>
<text text-anchor="start" x="568.5" y="-598" font-family="monospace" font-size="10.00">data/rad_wifl_clean_175_105000.rds</text>
<text text-anchor="start" x="568.5" y="-580" font-family="monospace" font-size="10.00">inputs/004/slg&#45;pipe&#45;locus&#45;order.rds</text>
<text text-anchor="start" x="568.5" y="-562" font-family="monospace" font-size="10.00">outputs/003/final_fluidigm_breeders_179_loci_393_birds_long.rds</text>
<text text-anchor="start" x="1069.5" y="-541.8" font-family="sans" font-size="10.00"> </text>
<text text-anchor="start" x="1072.5" y="-541.8" font-family="sans" font-weight="bold" font-size="14.00">output →</text>
<text text-anchor="start" x="1134.5" y="-541.8" font-family="sans" font-size="10.00"> </text>
<text text-anchor="start" x="568.5" y="-522" font-family="monospace" font-size="10.00">004&#45;combine&#45;RAD&#45;and&#45;fludigm&#45;breeders&#45;and&#45;run&#45;STRUCTURE.html</text>
<text text-anchor="start" x="568.5" y="-504" font-family="monospace" font-size="10.00">outputs/004/rad_and_fluidigm_combined_568_breeders_at_179_snps.rds</text>
<polygon fill="#d98657" stroke="#d98657" points="562.5,-668 562.5,-668 1144.5,-668 1144.5,-668 562.5,-668"/>
<polygon fill="#d98657" stroke="#d98657" points="562.5,-556 562.5,-556 1144.5,-556 1144.5,-556 562.5,-556"/>
<polygon fill="none" stroke="#d98657" stroke-width="2" points="562,-495 562,-697 1143,-697 1143,-495 562,-495"/>
</g>
<!-- 2&#45;&gt;6 -->
<g id="edge14" class="edge">
<title>2&#45;&gt;6</title>
<path fill="none" stroke="grey" stroke-width="2" d="M1035.19,-1117.72C993.34,-998.42 931.19,-821.28 891.26,-707.47"/>
<polygon fill="grey" stroke="grey" stroke-width="2" points="894.56,-706.3 887.94,-698.02 887.95,-708.62 894.56,-706.3"/>
</g>
<!-- 7 -->
<g id="node8" class="node">
<title>7</title>
<text text-anchor="start" x="20" y="-980.6" font-family="sans" font-weight="bold" font-size="18.00">choosing_96_SNPs_from_amongst_the_179_005</text>
<text text-anchor="start" x="7.5" y="-956.8" font-family="sans" font-size="10.00"> </text>
<text text-anchor="start" x="10.5" y="-956.8" font-family="sans" font-weight="bold" font-size="14.00">↪ input</text>
<text text-anchor="start" x="63.5" y="-956.8" font-family="sans" font-size="10.00"> </text>
<text text-anchor="start" x="7.5" y="-937" font-family="monospace" font-size="10.00">005&#45;choosing&#45;96&#45;SNPs&#45;from&#45;amongst&#45;the&#45;179.Rmd</text>
<text text-anchor="start" x="7.5" y="-919" font-family="monospace" font-size="10.00">inputs/004/slg&#45;pipe&#45;locus&#45;order.rds</text>
<text text-anchor="start" x="7.5" y="-901" font-family="monospace" font-size="10.00">stored_results/004/StructOuput_genos_slg_pipe.txt_dat001_k005_Rep001.txt_f</text>
<text text-anchor="start" x="384.5" y="-880.8" font-family="sans" font-size="10.00"> </text>
<text text-anchor="start" x="387.5" y="-880.8" font-family="sans" font-weight="bold" font-size="14.00">output →</text>
<text text-anchor="start" x="449.5" y="-880.8" font-family="sans" font-size="10.00"> </text>
<text text-anchor="start" x="7.5" y="-861" font-family="monospace" font-size="10.00">005&#45;choosing&#45;96&#45;SNPs&#45;from&#45;amongst&#45;the&#45;179.html</text>
<text text-anchor="start" x="7.5" y="-843" font-family="monospace" font-size="10.00">outputs/005/top96_loci.csv</text>
<polygon fill="#57b5d9" stroke="#57b5d9" points="1.5,-971 1.5,-971 459.5,-971 459.5,-971 1.5,-971"/>
<polygon fill="#57b5d9" stroke="#57b5d9" points="1.5,-895 1.5,-895 459.5,-895 459.5,-895 1.5,-895"/>
<polygon fill="none" stroke="#57b5d9" stroke-width="2" points="1,-834 1,-1000 458,-1000 458,-834 1,-834"/>
</g>
<!-- 2&#45;&gt;7 -->
<g id="edge16" class="edge">
<title>2&#45;&gt;7</title>
<path fill="none" stroke="grey" stroke-width="2" d="M858.69,-1150.39C823.94,-1138.07 788.07,-1126.72 753.5,-1118 629.27,-1086.67 587.21,-1127.64 467.5,-1082 420.99,-1064.27 374.79,-1035.65 335.64,-1007.25"/>
<polygon fill="grey" stroke="grey" stroke-width="2" points="337.53,-1004.3 327.4,-1001.2 333.39,-1009.94 337.53,-1004.3"/>
</g>
<!-- 8 -->
<g id="node9" class="node">
<title>8</title>
<text text-anchor="start" x="1760" y="-410.6" font-family="sans" font-weight="bold" font-size="18.00">make_the_genoscape_006</text>
<text text-anchor="start" x="1708.5" y="-386.8" font-family="sans" font-size="10.00"> </text>
<text text-anchor="start" x="1711.5" y="-386.8" font-family="sans" font-weight="bold" font-size="14.00">↪ input</text>
<text text-anchor="start" x="1764.5" y="-386.8" font-family="sans" font-size="10.00"> </text>
<text text-anchor="start" x="1708.5" y="-367" font-family="monospace" font-size="10.00">006&#45;make&#45;the&#45;genoscape.Rmd</text>
<text text-anchor="start" x="1708.5" y="-349" font-family="monospace" font-size="10.00">data/WIFL_RangeMap/WIFLrev.shp</text>
<text text-anchor="start" x="1708.5" y="-331" font-family="monospace" font-size="10.00">data/appendices/app1&#45;SITable1_Breed_IndvAssigwgenos.csv</text>
<text text-anchor="start" x="1708.5" y="-313" font-family="monospace" font-size="10.00">stored_results/004/Struct&#45;q&#45;values&#45;k007_Rep004.txt</text>
<text text-anchor="start" x="1971.5" y="-292.8" font-family="sans" font-size="10.00"> </text>
<text text-anchor="start" x="1974.5" y="-292.8" font-family="sans" font-weight="bold" font-size="14.00">output →</text>
<text text-anchor="start" x="2036.5" y="-292.8" font-family="sans" font-size="10.00"> </text>
<text text-anchor="start" x="1708.5" y="-273" font-family="monospace" font-size="10.00">006&#45;make&#45;the&#45;genoscape.html</text>
<polygon fill="#d9b557" stroke="#d9b557" points="1702.5,-401 1702.5,-401 2046.5,-401 2046.5,-401 1702.5,-401"/>
<polygon fill="#d9b557" stroke="#d9b557" points="1702.5,-307 1702.5,-307 2046.5,-307 2046.5,-307 1702.5,-307"/>
<polygon fill="none" stroke="#d9b557" stroke-width="2" points="1702,-264 1702,-430 2045,-430 2045,-264 1702,-264"/>
</g>
<!-- 2&#45;&gt;8 -->
<g id="edge17" class="edge">
<title>2&#45;&gt;8</title>
<path fill="none" stroke="grey" stroke-width="2" d="M1300.03,-1215.06C1465.48,-1188.77 1673.23,-1144.52 1732.5,-1082 1899.18,-906.17 1897.73,-596.38 1884.74,-441.57"/>
<polygon fill="grey" stroke="grey" stroke-width="2" points="1888.18,-440.8 1883.82,-431.14 1881.21,-441.41 1888.18,-440.8"/>
</g>
<!-- 9 -->
<g id="node10" class="node">
<title>9</title>
<text text-anchor="start" x="1207.5" y="-695.6" font-family="sans" font-weight="bold" font-size="18.00">process_fluidigm_plates_for_wintering_birds_007</text>
<text text-anchor="start" x="1207.5" y="-671.8" font-family="sans" font-size="10.00"> </text>
<text text-anchor="start" x="1210.5" y="-671.8" font-family="sans" font-weight="bold" font-size="14.00">↪ input</text>
<text text-anchor="start" x="1263.5" y="-671.8" font-family="sans" font-size="10.00"> </text>
<text text-anchor="start" x="1207.5" y="-652" font-family="monospace" font-size="10.00">007&#45;process&#45;fluidigm&#45;plates&#45;for&#45;wintering&#45;birds.Rmd</text>
<text text-anchor="start" x="1207.5" y="-634" font-family="monospace" font-size="10.00">data/WIFL_fluidigm_assay_info.csv</text>
<text text-anchor="start" x="1207.5" y="-616" font-family="monospace" font-size="10.00">data/appendices/app1&#45;winter&#45;indivs&#45;assignments&#45;and&#45;genos.csv</text>
<text text-anchor="start" x="1207.5" y="-598" font-family="monospace" font-size="10.00">data/fluidigm_additional_chips/WIFL.Plate16_PopID_CBdetailedResults.csv</text>
<text text-anchor="start" x="1207.5" y="-580" font-family="monospace" font-size="10.00">data/fluidigm_panel_3_chips</text>
<text text-anchor="start" x="1207.5" y="-562" font-family="monospace" font-size="10.00">outputs/003/564_birds_at_192_fluidigm_snps.rds</text>
<text text-anchor="start" x="1569.5" y="-541.8" font-family="sans" font-size="10.00"> </text>
<text text-anchor="start" x="1572.5" y="-541.8" font-family="sans" font-weight="bold" font-size="14.00">output →</text>
<text text-anchor="start" x="1634.5" y="-541.8" font-family="sans" font-size="10.00"> </text>
<text text-anchor="start" x="1207.5" y="-522" font-family="monospace" font-size="10.00">007&#45;process&#45;fluidigm&#45;plates&#45;for&#45;wintering&#45;birds.html</text>
<text text-anchor="start" x="1207.5" y="-504" font-family="monospace" font-size="10.00">outputs/007/470_birds_at_96_panel3_fluidigm_snps.rds</text>
<text text-anchor="start" x="1207.5" y="-486" font-family="monospace" font-size="10.00">outputs/007/winter_rubias.rds</text>
<polygon fill="#57d9cd" stroke="#57d9cd" points="1201.5,-686 1201.5,-686 1644.5,-686 1644.5,-686 1201.5,-686"/>
<polygon fill="#57d9cd" stroke="#57d9cd" points="1201.5,-556 1201.5,-556 1644.5,-556 1644.5,-556 1201.5,-556"/>
<polygon fill="none" stroke="#57d9cd" stroke-width="2" points="1201.5,-477 1201.5,-715 1643.5,-715 1643.5,-477 1201.5,-477"/>
</g>
<!-- 2&#45;&gt;9 -->
<g id="edge19" class="edge">
<title>2&#45;&gt;9</title>
<path fill="none" stroke="grey" stroke-width="2" d="M1170.4,-1117.76C1176.53,-1106.01 1182.03,-1094 1186.5,-1082 1238.14,-943.4 1157.05,-880.95 1229.5,-752 1234.99,-742.22 1241.38,-732.82 1248.4,-723.83"/>
<polygon fill="grey" stroke="grey" stroke-width="2" points="1251.15,-726 1254.74,-716.04 1245.72,-721.59 1251.15,-726"/>
</g>
<!-- 10 -->
<g id="node11" class="node">
<title>10</title>
<text text-anchor="start" x="950.5" y="-419.6" font-family="sans" font-weight="bold" font-size="18.00">rubias_self_assign_and_wintering_birds_008</text>
<text text-anchor="start" x="946.5" y="-395.8" font-family="sans" font-size="10.00"> </text>
<text text-anchor="start" x="949.5" y="-395.8" font-family="sans" font-weight="bold" font-size="14.00">↪ input</text>
<text text-anchor="start" x="1002.5" y="-395.8" font-family="sans" font-size="10.00"> </text>
<text text-anchor="start" x="946.5" y="-376" font-family="monospace" font-size="10.00">008&#45;rubias&#45;self&#45;assign&#45;and&#45;wintering&#45;birds.Rmd</text>
<text text-anchor="start" x="946.5" y="-358" font-family="monospace" font-size="10.00">data/appendices/app1&#45;SITable1_Breed_IndvAssigwgenos.csv</text>
<text text-anchor="start" x="946.5" y="-340" font-family="monospace" font-size="10.00">data/appendices/app1&#45;winter&#45;indivs&#45;assignments&#45;and&#45;genos.csv</text>
<text text-anchor="start" x="946.5" y="-322" font-family="monospace" font-size="10.00">outputs/004/rad_and_fluidigm_combined_568_breeders_at_179_snps.rds</text>
<text text-anchor="start" x="946.5" y="-304" font-family="monospace" font-size="10.00">outputs/007/winter_rubias.rds</text>
<text text-anchor="start" x="1275.5" y="-283.8" font-family="sans" font-size="10.00"> </text>
<text text-anchor="start" x="1278.5" y="-283.8" font-family="sans" font-weight="bold" font-size="14.00">output →</text>
<text text-anchor="start" x="1340.5" y="-283.8" font-family="sans" font-size="10.00"> </text>
<text text-anchor="start" x="946.5" y="-264" font-family="monospace" font-size="10.00">008&#45;rubias&#45;self&#45;assign&#45;and&#45;wintering&#45;birds.html</text>
<polygon fill="#cdd957" stroke="#cdd957" points="940.5,-410 940.5,-410 1350.5,-410 1350.5,-410 940.5,-410"/>
<polygon fill="#cdd957" stroke="#cdd957" points="940.5,-298 940.5,-298 1350.5,-298 1350.5,-298 940.5,-298"/>
<polygon fill="none" stroke="#cdd957" stroke-width="2" points="940,-255 940,-439 1349,-439 1349,-255 940,-255"/>
</g>
<!-- 2&#45;&gt;10 -->
<g id="edge21" class="edge">
<title>2&#45;&gt;10</title>
<path fill="none" stroke="grey" stroke-width="2" d="M1101.92,-1117.82C1119.66,-1011.17 1143,-854.13 1152.5,-716 1159.82,-609.58 1155.83,-582.61 1152.5,-476 1152.24,-467.68 1151.89,-459.06 1151.47,-450.41"/>
<polygon fill="grey" stroke="grey" stroke-width="2" points="1154.96,-450.07 1150.96,-440.26 1147.97,-450.42 1154.96,-450.07"/>
</g>
<!-- 3&#45;&gt;0 -->
<g id="edge6" class="edge">
<title>3&#45;&gt;0</title>
<path fill="none" stroke="grey" stroke-width="2" d="M476.77,-756.45C473.7,-754.9 470.61,-753.41 467.5,-752 407.78,-724.86 217.97,-765.13 174.5,-716 139.16,-676.05 147.62,-522.06 174.5,-476 304.71,-252.9 608.69,-165.46 810.64,-131.41"/>
<polygon fill="grey" stroke="grey" stroke-width="2" points="811.48,-134.81 820.78,-129.73 810.34,-127.91 811.48,-134.81"/>
</g>
<!-- 4 -->
<g id="node5" class="node">
<title>4</title>
<text text-anchor="start" x="394" y="-1279.6" font-family="sans" font-weight="bold" font-size="18.00">stored_results_from_cluster</text>
<text text-anchor="start" x="293.5" y="-1258" font-family="sans" font-size="10.00"> &#160;</text>
<text text-anchor="start" x="670.5" y="-1237.8" font-family="sans" font-size="10.00"> </text>
<text text-anchor="start" x="673.5" y="-1237.8" font-family="sans" font-weight="bold" font-size="14.00">output →</text>
<text text-anchor="start" x="735.5" y="-1237.8" font-family="sans" font-size="10.00"> </text>
<text text-anchor="start" x="293.5" y="-1218" font-family="monospace" font-size="10.00">stored_results/002/candidate_snps_tossed.csv</text>
<text text-anchor="start" x="293.5" y="-1200" font-family="monospace" font-size="10.00">stored_results/004/StructOuput_genos_slg_pipe.txt_dat001_k005_Rep001.txt_f</text>
<polygon fill="#5786d9" stroke="#5786d9" points="287.5,-1270 287.5,-1270 745.5,-1270 745.5,-1270 287.5,-1270"/>
<polygon fill="#5786d9" stroke="#5786d9" points="287.5,-1252 287.5,-1252 745.5,-1252 745.5,-1252 287.5,-1252"/>
<polygon fill="none" stroke="#5786d9" stroke-width="2" points="287,-1191 287,-1299 744,-1299 744,-1191 287,-1191"/>
</g>
<!-- 4&#45;&gt;3 -->
<g id="edge10" class="edge">
<title>4&#45;&gt;3</title>
<path fill="none" stroke="grey" stroke-width="2" d="M537.94,-1189.8C549.3,-1162.38 563.79,-1127.39 578.56,-1091.72"/>
<polygon fill="grey" stroke="grey" stroke-width="2" points="581.93,-1092.72 582.53,-1082.15 575.47,-1090.05 581.93,-1092.72"/>
</g>
<!-- 4&#45;&gt;7 -->
<g id="edge15" class="edge">
<title>4&#45;&gt;7</title>
<path fill="none" stroke="grey" stroke-width="2" d="M467.95,-1189.8C424.78,-1140.59 360.25,-1067.03 309.2,-1008.84"/>
<polygon fill="grey" stroke="grey" stroke-width="2" points="311.63,-1006.31 302.41,-1001.1 306.37,-1010.93 311.63,-1006.31"/>
</g>
<!-- 5&#45;&gt;0 -->
<g id="edge2" class="edge">
<title>5&#45;&gt;0</title>
<path fill="none" stroke="grey" stroke-width="2" d="M1576.62,-832.52C1607.25,-799.65 1637.42,-759.37 1653.5,-716 1690.59,-615.99 1697.03,-573.38 1653.5,-476 1573.45,-296.92 1360.44,-201.52 1200.33,-153.53"/>
<polygon fill="grey" stroke="grey" stroke-width="2" points="1200.93,-150.06 1190.34,-150.58 1198.94,-156.77 1200.93,-150.06"/>
</g>
<!-- 5&#45;&gt;6 -->
<g id="edge13" class="edge">
<title>5&#45;&gt;6</title>
<path fill="none" stroke="grey" stroke-width="2" d="M1317.47,-832.81C1239.06,-793.05 1144.33,-745 1060.89,-702.69"/>
<polygon fill="grey" stroke="grey" stroke-width="2" points="1062.32,-699.49 1051.82,-698.08 1059.15,-705.73 1062.32,-699.49"/>
</g>
<!-- 5&#45;&gt;9 -->
<g id="edge18" class="edge">
<title>5&#45;&gt;9</title>
<path fill="none" stroke="grey" stroke-width="2" d="M1466.08,-832.6C1460.07,-800.12 1453.04,-762.14 1446.41,-726.27"/>
<polygon fill="grey" stroke="grey" stroke-width="2" points="1449.81,-725.42 1444.55,-716.22 1442.93,-726.69 1449.81,-725.42"/>
</g>
<!-- 6&#45;&gt;0 -->
<g id="edge1" class="edge">
<title>6&#45;&gt;0</title>
<path fill="none" stroke="grey" stroke-width="2" d="M868.13,-493.77C880.52,-424.85 900.58,-332.28 929.5,-254 932.74,-245.24 936.4,-236.35 940.33,-227.5"/>
<polygon fill="grey" stroke="grey" stroke-width="2" points="943.56,-228.85 944.52,-218.3 937.19,-225.95 943.56,-228.85"/>
</g>
<!-- 6&#45;&gt;10 -->
<g id="edge20" class="edge">
<title>6&#45;&gt;10</title>
<path fill="none" stroke="grey" stroke-width="2" d="M972.11,-493.82C990.44,-478.32 1009.34,-462.33 1027.61,-446.88"/>
<polygon fill="grey" stroke="grey" stroke-width="2" points="1030.02,-449.42 1035.4,-440.29 1025.5,-444.07 1030.02,-449.42"/>
</g>
<!-- 7&#45;&gt;0 -->
<g id="edge8" class="edge">
<title>7&#45;&gt;0</title>
<path fill="none" stroke="grey" stroke-width="2" d="M186.83,-832.62C171.15,-797.57 155.34,-755.76 147.5,-716 107.55,-513.27 49.55,-396.16 199.5,-254 285.39,-172.57 600.58,-136.15 810.41,-120.63"/>
<polygon fill="grey" stroke="grey" stroke-width="2" points="810.92,-124.11 820.64,-119.89 810.41,-117.13 810.92,-124.11"/>
</g>
<!-- 8&#45;&gt;0 -->
<g id="edge3" class="edge">
<title>8&#45;&gt;0</title>
<path fill="none" stroke="grey" stroke-width="2" d="M1710.56,-262.95C1702.5,-259.76 1694.45,-256.75 1686.5,-254 1526.88,-198.83 1338.59,-160.98 1200.5,-137.98"/>
<polygon fill="grey" stroke="grey" stroke-width="2" points="1200.66,-134.46 1190.23,-136.28 1199.52,-141.37 1200.66,-134.46"/>
</g>
<!-- 9&#45;&gt;0 -->
<g id="edge7" class="edge">
<title>9&#45;&gt;0</title>
<path fill="none" stroke="grey" stroke-width="2" d="M1427.38,-475.85C1424.22,-404.34 1408.77,-315.6 1358.5,-254 1318.28,-204.72 1258.51,-172.14 1199.53,-150.68"/>
<polygon fill="grey" stroke="grey" stroke-width="2" points="1200.67,-147.37 1190.07,-147.33 1198.33,-153.97 1200.67,-147.37"/>
</g>
<!-- 9&#45;&gt;10 -->
<g id="edge22" class="edge">
<title>9&#45;&gt;10</title>
<path fill="none" stroke="grey" stroke-width="2" d="M1288.39,-475.84C1277.55,-466.21 1266.67,-456.55 1256.02,-447.08"/>
<polygon fill="grey" stroke="grey" stroke-width="2" points="1258.1,-444.25 1248.3,-440.23 1253.46,-449.49 1258.1,-444.25"/>
</g>
<!-- 10&#45;&gt;0 -->
<g id="edge4" class="edge">
<title>10&#45;&gt;0</title>
<path fill="none" stroke="grey" stroke-width="2" d="M1090.16,-253.74C1084.97,-244.93 1079.66,-235.91 1074.35,-226.9"/>
<polygon fill="grey" stroke="grey" stroke-width="2" points="1077.36,-225.11 1069.27,-218.27 1071.33,-228.66 1077.36,-225.11"/>
</g>
</g>
</svg>
